<svg width="185" height="133" viewBox="0 0 185 133" fill="none" xmlns="http://www.w3.org/2000/svg">
<path d="M2.9375 66V22.25H9.9375V66H2.9375ZM13.125 46.25V39.4375H17.3125C20.3542 39.4375 22 37.9583 22.25 35C22.25 34.75 22.25 34.5 22.25 34.25C21.9583 30.9583 20.3125 29.2292 17.3125 29.0625H13.125V22.25H17.875C25.4583 22.375 29.2708 26.3333 29.3125 34.125C29.3125 40.1667 27.3958 43.9375 23.5625 45.4375C21.9792 45.9792 20.0833 46.25 17.875 46.25C17.7917 46.25 16.2083 46.25 13.125 46.25ZM32.75 53.8125V33.25C32.75 31.0417 33.6875 28.7917 35.5625 26.5C38.0625 23.5 41.2292 21.9792 45.0625 21.9375V28.875C42.8958 28.9167 41.2708 30.0833 40.1875 32.375C39.8542 33.125 39.6875 33.75 39.6875 34.25V53.8125C39.6875 56.0625 40.8542 57.7292 43.1875 58.8125C43.8958 59.1458 44.5 59.3125 45 59.3125V66.3125C42.625 66.3125 40.25 65.4583 37.875 63.75C34.5 61.25 32.7917 57.9375 32.75 53.8125ZM48.4375 66.3125V59.3125C49.5208 59.3125 50.6458 58.8125 51.8125 57.8125C53.0625 56.6875 53.7083 55.3542 53.75 53.8125V34.25C53.75 33 53.2083 31.7917 52.125 30.625C51.0833 29.5 49.8542 28.9167 48.4375 28.875V21.9375C52.6458 21.9375 56.0208 23.75 58.5625 27.375C60.0208 29.4583 60.75 31.4167 60.75 33.25V53.8125C60.75 58.4375 58.6875 61.9792 54.5625 64.4375C52.3958 65.6875 50.3542 66.3125 48.4375 66.3125ZM65.75 66V22.25H72.75V66H65.75ZM75.9375 47.5625V41.3125H79.4375C83.0625 41.3125 85.0625 39.5833 85.4375 36.125C85.4792 35.75 85.5 35.3958 85.5 35.0625C85.5 31.5625 83.9167 29.5 80.75 28.875C80.1667 28.7917 79.5625 28.75 78.9375 28.75H75.9375V22.25H79.75C85.2917 22.375 89.0208 24.4375 90.9375 28.4375C91.7292 30.1042 92.125 32.0208 92.125 34.1875C92.0833 38.8125 90.6667 42.1667 87.875 44.25C90.0417 45.5 91.4167 47.7292 92 50.9375C92.0833 51.4792 92.1458 51.9792 92.1875 52.4375L93.25 66H86.75L85.8125 54.875C85.4792 51.375 84.5417 49.1667 83 48.25C82.0833 47.7917 80.9375 47.5625 79.5625 47.5625H75.9375ZM95.75 29.0625V22.25H122.812V29.0625H112.812V66H105.812V29.0625H95.75ZM126.438 66V22.25H149.188V29.125H133.438V40.75H143.312V47.75H133.438V59.0625H149.188V66H126.438ZM154.25 66V33.375H154.75L161.25 43.8125V66H154.25ZM154.25 26.75V22.25H160.062L182.062 57.5625V66H178.688L154.25 26.75ZM175.062 40.5V22.25H182.062V50.9375H181.562L175.062 40.5Z" fill="white"/>
<path d="M13.7494 110.362C13.3094 110.699 12.7521 110.934 12.0774 111.066C11.4028 111.198 10.6841 111.264 9.92144 111.264C8.99744 111.264 8.1321 111.11 7.32544 110.802C6.51877 110.479 5.81477 109.995 5.21344 109.35C4.6121 108.705 4.13544 107.883 3.78344 106.886C3.43144 105.874 3.25544 104.679 3.25544 103.3C3.25544 101.863 3.4461 100.645 3.82744 99.648C4.22344 98.636 4.73677 97.8147 5.36744 97.184C6.01277 96.5387 6.73144 96.0693 7.52344 95.776C8.31544 95.4827 9.1221 95.336 9.94344 95.336C10.8234 95.336 11.5421 95.3873 12.0994 95.49C12.6568 95.578 13.1334 95.7027 13.5294 95.864L13.0894 97.47C12.3854 97.1327 11.3808 96.964 10.0754 96.964C9.4741 96.964 8.8801 97.074 8.29344 97.294C7.70677 97.514 7.17877 97.8733 6.70944 98.372C6.25477 98.8707 5.8881 99.5233 5.60944 100.33C5.33077 101.137 5.19144 102.127 5.19144 103.3C5.19144 104.356 5.32344 105.28 5.58744 106.072C5.85144 106.864 6.21077 107.524 6.66544 108.052C7.13477 108.58 7.67744 108.976 8.29344 109.24C8.9241 109.504 9.6061 109.636 10.3394 109.636C10.9994 109.636 11.5714 109.57 12.0554 109.438C12.5541 109.306 12.9721 109.137 13.3094 108.932L13.7494 110.362ZM23.1648 106.732H17.4888L15.9488 111H14.1448L19.9748 95.358H20.8108L26.6628 111H24.7488L23.1648 106.732ZM18.0828 105.148H22.6148L20.8988 100.462L20.3488 98.13H20.3268L19.7767 100.506L18.0828 105.148ZM37.9259 103.938H30.5339V111H28.7079V95.6H30.5339V102.31H37.9259V95.6H39.7519V111H37.9259V103.938ZM46.3491 103.872H45.3151V111H43.4891V95.6H45.3151V102.772L46.3051 102.464L51.4751 95.6H53.5871L48.4391 102.222L47.5151 102.948L48.6371 103.828L54.2691 111H51.9591L46.3491 103.872ZM66.646 97.228H61.85V111H60.024V97.228H55.228V95.6H66.646V97.228ZM66.4855 103.85H71.8095V105.478H66.4855V103.85ZM83.9172 97.228H76.8112V111H74.9852V95.6H85.7432V111H83.9172V97.228ZM89.4872 95.6H97.8692V97.228H91.3132V102.266H97.3192V103.894H91.3132V109.372H97.9792V111H89.4872V95.6ZM111.226 97.228H106.43V111H104.604V97.228H99.8081V95.6H111.226V97.228ZM113.485 95.6H121.867V97.228H115.311V102.266H121.317V103.894H115.311V109.372H121.977V111H113.485V95.6ZM125.28 95.754C125.837 95.622 126.439 95.534 127.084 95.49C127.729 95.446 128.367 95.424 128.998 95.424C129.673 95.424 130.355 95.49 131.044 95.622C131.748 95.754 132.386 95.996 132.958 96.348C133.53 96.7 133.992 97.184 134.344 97.8C134.711 98.416 134.894 99.2007 134.894 100.154C134.894 101.093 134.725 101.885 134.388 102.53C134.051 103.175 133.603 103.703 133.046 104.114C132.489 104.51 131.851 104.796 131.132 104.972C130.413 105.148 129.673 105.236 128.91 105.236C128.837 105.236 128.712 105.236 128.536 105.236C128.375 105.236 128.199 105.236 128.008 105.236C127.832 105.221 127.656 105.207 127.48 105.192C127.304 105.177 127.179 105.163 127.106 105.148V111H125.28V95.754ZM129.042 97.008C128.661 97.008 128.294 97.0153 127.942 97.03C127.59 97.0447 127.311 97.0813 127.106 97.14V103.52C127.179 103.549 127.297 103.571 127.458 103.586C127.619 103.586 127.788 103.593 127.964 103.608C128.14 103.608 128.309 103.608 128.47 103.608C128.631 103.608 128.749 103.608 128.822 103.608C129.321 103.608 129.812 103.564 130.296 103.476C130.795 103.373 131.242 103.197 131.638 102.948C132.034 102.699 132.349 102.347 132.584 101.892C132.833 101.437 132.958 100.858 132.958 100.154C132.958 99.5527 132.841 99.054 132.606 98.658C132.386 98.2473 132.085 97.9247 131.704 97.69C131.337 97.4407 130.919 97.2647 130.45 97.162C129.981 97.0593 129.511 97.008 129.042 97.008ZM137.569 95.6H145.929V97.228H139.395V101.848C139.645 101.804 139.953 101.76 140.319 101.716C140.686 101.672 141.038 101.65 141.375 101.65C142.123 101.65 142.835 101.723 143.509 101.87C144.184 102.002 144.778 102.237 145.291 102.574C145.805 102.911 146.208 103.373 146.501 103.96C146.809 104.532 146.963 105.258 146.963 106.138C146.963 107.018 146.809 107.781 146.501 108.426C146.193 109.057 145.783 109.577 145.269 109.988C144.756 110.384 144.155 110.685 143.465 110.89C142.791 111.081 142.079 111.176 141.331 111.176C141.082 111.176 140.796 111.169 140.473 111.154C140.165 111.154 139.835 111.139 139.483 111.11C139.146 111.081 138.809 111.044 138.471 111C138.149 110.971 137.848 110.919 137.569 110.846V95.6ZM141.551 109.592C142.021 109.592 142.468 109.526 142.893 109.394C143.319 109.262 143.685 109.071 143.993 108.822C144.316 108.558 144.565 108.228 144.741 107.832C144.932 107.436 145.027 106.974 145.027 106.446C145.027 105.771 144.917 105.229 144.697 104.818C144.492 104.393 144.213 104.063 143.861 103.828C143.509 103.593 143.099 103.439 142.629 103.366C142.175 103.278 141.698 103.234 141.199 103.234C141.067 103.234 140.913 103.241 140.737 103.256C140.561 103.271 140.385 103.285 140.209 103.3C140.033 103.315 139.872 103.337 139.725 103.366C139.579 103.381 139.469 103.395 139.395 103.41V109.46C139.498 109.489 139.63 109.511 139.791 109.526C139.967 109.541 140.151 109.555 140.341 109.57C140.547 109.585 140.752 109.592 140.957 109.592C141.163 109.592 141.361 109.592 141.551 109.592ZM153.999 103.718L154.571 105.676H154.681L155.121 103.652L158.069 95.6H159.939L156.045 105.61C155.649 106.651 155.297 107.524 154.989 108.228C154.696 108.917 154.395 109.482 154.087 109.922C153.779 110.347 153.449 110.655 153.097 110.846C152.745 111.022 152.312 111.11 151.799 111.11C151.315 111.11 150.926 111.073 150.633 111C150.354 110.912 150.09 110.787 149.841 110.626L150.391 109.108C150.684 109.269 150.956 109.372 151.205 109.416C151.454 109.46 151.682 109.482 151.887 109.482C152.298 109.482 152.642 109.277 152.921 108.866C153.2 108.441 153.442 107.817 153.647 106.996L147.949 95.6H150.061L153.999 103.718ZM161.825 95.754C162.382 95.622 162.984 95.534 163.629 95.49C164.274 95.446 164.912 95.424 165.543 95.424C166.218 95.424 166.9 95.49 167.589 95.622C168.293 95.754 168.931 95.996 169.503 96.348C170.075 96.7 170.537 97.184 170.889 97.8C171.256 98.416 171.439 99.2007 171.439 100.154C171.439 101.093 171.27 101.885 170.933 102.53C170.596 103.175 170.148 103.703 169.591 104.114C169.034 104.51 168.396 104.796 167.677 104.972C166.958 105.148 166.218 105.236 165.455 105.236C165.382 105.236 165.257 105.236 165.081 105.236C164.92 105.236 164.744 105.236 164.553 105.236C164.377 105.221 164.201 105.207 164.025 105.192C163.849 105.177 163.724 105.163 163.651 105.148V111H161.825V95.754ZM165.587 97.008C165.206 97.008 164.839 97.0153 164.487 97.03C164.135 97.0447 163.856 97.0813 163.651 97.14V103.52C163.724 103.549 163.842 103.571 164.003 103.586C164.164 103.586 164.333 103.593 164.509 103.608C164.685 103.608 164.854 103.608 165.015 103.608C165.176 103.608 165.294 103.608 165.367 103.608C165.866 103.608 166.357 103.564 166.841 103.476C167.34 103.373 167.787 103.197 168.183 102.948C168.579 102.699 168.894 102.347 169.129 101.892C169.378 101.437 169.503 100.858 169.503 100.154C169.503 99.5527 169.386 99.054 169.151 98.658C168.931 98.2473 168.63 97.9247 168.249 97.69C167.882 97.4407 167.464 97.2647 166.995 97.162C166.526 97.0593 166.056 97.008 165.587 97.008ZM182.364 97.228H175.94V111H174.114V95.6H182.364V97.228Z" fill="white"/>
<line x1="3" y1="81" x2="182" y2="81" stroke="white" stroke-width="2"/>
</svg>
